<mxfile host="app.diagrams.net" agent="Mozilla/5.0 (Windows NT 10.0; Win64; x64; rv:131.0) Gecko/20100101 Firefox/131.0" version="24.7.17">
  <diagram id="C5RBs43oDa-KdzZeNtuy" name="Page-1">
    <mxGraphModel dx="1034" dy="461" grid="1" gridSize="10" guides="1" tooltips="1" connect="1" arrows="1" fold="1" page="1" pageScale="1" pageWidth="827" pageHeight="1169" math="0" shadow="0">
      <root>
        <mxCell id="WIyWlLk6GJQsqaUBKTNV-0" />
        <mxCell id="WIyWlLk6GJQsqaUBKTNV-1" parent="WIyWlLk6GJQsqaUBKTNV-0" />
        <mxCell id="AexJaZ2pixQEeQAk4NjD-65" style="edgeStyle=orthogonalEdgeStyle;rounded=0;orthogonalLoop=1;jettySize=auto;html=1;endArrow=diamondThin;endFill=0;endSize=20;" parent="WIyWlLk6GJQsqaUBKTNV-1" source="zkfFHV4jXpPFQw0GAbJ--0" target="AexJaZ2pixQEeQAk4NjD-54" edge="1">
          <mxGeometry relative="1" as="geometry" />
        </mxCell>
        <mxCell id="AexJaZ2pixQEeQAk4NjD-106" value="1" style="edgeLabel;html=1;align=center;verticalAlign=middle;resizable=0;points=[];" parent="AexJaZ2pixQEeQAk4NjD-65" vertex="1" connectable="0">
          <mxGeometry x="-0.6491" relative="1" as="geometry">
            <mxPoint x="6" y="1" as="offset" />
          </mxGeometry>
        </mxCell>
        <mxCell id="AexJaZ2pixQEeQAk4NjD-107" value="0 ... *" style="edgeLabel;html=1;align=center;verticalAlign=middle;resizable=0;points=[];" parent="AexJaZ2pixQEeQAk4NjD-65" vertex="1" connectable="0">
          <mxGeometry x="0.199" y="1" relative="1" as="geometry">
            <mxPoint x="14" as="offset" />
          </mxGeometry>
        </mxCell>
        <mxCell id="AexJaZ2pixQEeQAk4NjD-76" style="edgeStyle=orthogonalEdgeStyle;rounded=0;orthogonalLoop=1;jettySize=auto;html=1;endArrow=diamondThin;endFill=1;endSize=20;" parent="WIyWlLk6GJQsqaUBKTNV-1" source="zkfFHV4jXpPFQw0GAbJ--0" target="AexJaZ2pixQEeQAk4NjD-48" edge="1">
          <mxGeometry relative="1" as="geometry" />
        </mxCell>
        <mxCell id="AexJaZ2pixQEeQAk4NjD-110" value="1" style="edgeLabel;html=1;align=center;verticalAlign=middle;resizable=0;points=[];" parent="AexJaZ2pixQEeQAk4NjD-76" vertex="1" connectable="0">
          <mxGeometry x="-0.8324" relative="1" as="geometry">
            <mxPoint y="-9" as="offset" />
          </mxGeometry>
        </mxCell>
        <mxCell id="AexJaZ2pixQEeQAk4NjD-111" value="1 ... *" style="edgeLabel;html=1;align=center;verticalAlign=middle;resizable=0;points=[];" parent="AexJaZ2pixQEeQAk4NjD-76" vertex="1" connectable="0">
          <mxGeometry x="0.4393" y="1" relative="1" as="geometry">
            <mxPoint x="2" y="-8" as="offset" />
          </mxGeometry>
        </mxCell>
        <mxCell id="AexJaZ2pixQEeQAk4NjD-80" style="rounded=0;orthogonalLoop=1;jettySize=auto;html=1;endArrow=diamondThin;endFill=0;endSize=20;" parent="WIyWlLk6GJQsqaUBKTNV-1" source="zkfFHV4jXpPFQw0GAbJ--0" target="AexJaZ2pixQEeQAk4NjD-0" edge="1">
          <mxGeometry relative="1" as="geometry" />
        </mxCell>
        <mxCell id="AexJaZ2pixQEeQAk4NjD-108" value="1" style="edgeLabel;html=1;align=center;verticalAlign=middle;resizable=0;points=[];" parent="AexJaZ2pixQEeQAk4NjD-80" vertex="1" connectable="0">
          <mxGeometry x="-0.8525" y="-1" relative="1" as="geometry">
            <mxPoint y="6" as="offset" />
          </mxGeometry>
        </mxCell>
        <mxCell id="AexJaZ2pixQEeQAk4NjD-109" value="0 ... *" style="edgeLabel;html=1;align=center;verticalAlign=middle;resizable=0;points=[];" parent="AexJaZ2pixQEeQAk4NjD-80" vertex="1" connectable="0">
          <mxGeometry x="0.6411" y="-1" relative="1" as="geometry">
            <mxPoint x="9" y="3" as="offset" />
          </mxGeometry>
        </mxCell>
        <mxCell id="zkfFHV4jXpPFQw0GAbJ--0" value="Riesgo" style="swimlane;fontStyle=2;align=center;verticalAlign=top;childLayout=stackLayout;horizontal=1;startSize=26;horizontalStack=0;resizeParent=1;resizeLast=0;collapsible=1;marginBottom=0;rounded=0;shadow=0;strokeWidth=1;" parent="WIyWlLk6GJQsqaUBKTNV-1" vertex="1">
          <mxGeometry x="347" y="470" width="160" height="153" as="geometry">
            <mxRectangle x="230" y="140" width="160" height="26" as="alternateBounds" />
          </mxGeometry>
        </mxCell>
        <mxCell id="zkfFHV4jXpPFQw0GAbJ--1" value="- idRiesgo: Long&#xa;- descripcion: String&#xa;- responsable: String&#xa;- fechaCreacion: String&#xa;- categoria: Categoria()" style="text;align=left;verticalAlign=top;spacingLeft=4;spacingRight=4;overflow=hidden;rotatable=0;points=[[0,0.5],[1,0.5]];portConstraint=eastwest;" parent="zkfFHV4jXpPFQw0GAbJ--0" vertex="1">
          <mxGeometry y="26" width="160" height="84" as="geometry" />
        </mxCell>
        <mxCell id="zkfFHV4jXpPFQw0GAbJ--4" value="" style="line;html=1;strokeWidth=1;align=left;verticalAlign=middle;spacingTop=-1;spacingLeft=3;spacingRight=3;rotatable=0;labelPosition=right;points=[];portConstraint=eastwest;" parent="zkfFHV4jXpPFQw0GAbJ--0" vertex="1">
          <mxGeometry y="110" width="160" height="8" as="geometry" />
        </mxCell>
        <mxCell id="zkfFHV4jXpPFQw0GAbJ--5" value="+ /getters/setters" style="text;align=left;verticalAlign=top;spacingLeft=4;spacingRight=4;overflow=hidden;rotatable=0;points=[[0,0.5],[1,0.5]];portConstraint=eastwest;" parent="zkfFHV4jXpPFQw0GAbJ--0" vertex="1">
          <mxGeometry y="118" width="160" height="26" as="geometry" />
        </mxCell>
        <mxCell id="AexJaZ2pixQEeQAk4NjD-0" value="Evaluacion" style="swimlane;fontStyle=2;align=center;verticalAlign=top;childLayout=stackLayout;horizontal=1;startSize=26;horizontalStack=0;resizeParent=1;resizeLast=0;collapsible=1;marginBottom=0;rounded=0;shadow=0;strokeWidth=1;" parent="WIyWlLk6GJQsqaUBKTNV-1" vertex="1">
          <mxGeometry x="640" y="282" width="160" height="94" as="geometry">
            <mxRectangle x="230" y="140" width="160" height="26" as="alternateBounds" />
          </mxGeometry>
        </mxCell>
        <mxCell id="AexJaZ2pixQEeQAk4NjD-1" value="- idEvaluacion: Long" style="text;align=left;verticalAlign=top;spacingLeft=4;spacingRight=4;overflow=hidden;rotatable=0;points=[[0,0.5],[1,0.5]];portConstraint=eastwest;" parent="AexJaZ2pixQEeQAk4NjD-0" vertex="1">
          <mxGeometry y="26" width="160" height="34" as="geometry" />
        </mxCell>
        <mxCell id="AexJaZ2pixQEeQAk4NjD-4" value="" style="line;html=1;strokeWidth=1;align=left;verticalAlign=middle;spacingTop=-1;spacingLeft=3;spacingRight=3;rotatable=0;labelPosition=right;points=[];portConstraint=eastwest;" parent="AexJaZ2pixQEeQAk4NjD-0" vertex="1">
          <mxGeometry y="60" width="160" height="8" as="geometry" />
        </mxCell>
        <mxCell id="AexJaZ2pixQEeQAk4NjD-5" value="+ /getters/setters" style="text;align=left;verticalAlign=top;spacingLeft=4;spacingRight=4;overflow=hidden;rotatable=0;points=[[0,0.5],[1,0.5]];portConstraint=eastwest;" parent="AexJaZ2pixQEeQAk4NjD-0" vertex="1">
          <mxGeometry y="68" width="160" height="26" as="geometry" />
        </mxCell>
        <mxCell id="AexJaZ2pixQEeQAk4NjD-73" style="edgeStyle=orthogonalEdgeStyle;rounded=0;orthogonalLoop=1;jettySize=auto;html=1;endArrow=diamondThin;endFill=0;endSize=20;" parent="WIyWlLk6GJQsqaUBKTNV-1" source="AexJaZ2pixQEeQAk4NjD-6" target="zkfFHV4jXpPFQw0GAbJ--0" edge="1">
          <mxGeometry relative="1" as="geometry" />
        </mxCell>
        <mxCell id="AexJaZ2pixQEeQAk4NjD-104" value="1" style="edgeLabel;html=1;align=center;verticalAlign=middle;resizable=0;points=[];" parent="AexJaZ2pixQEeQAk4NjD-73" vertex="1" connectable="0">
          <mxGeometry x="-0.7843" y="1" relative="1" as="geometry">
            <mxPoint as="offset" />
          </mxGeometry>
        </mxCell>
        <mxCell id="AexJaZ2pixQEeQAk4NjD-105" value="0 ... *" style="edgeLabel;html=1;align=center;verticalAlign=middle;resizable=0;points=[];" parent="AexJaZ2pixQEeQAk4NjD-73" vertex="1" connectable="0">
          <mxGeometry x="0.5219" relative="1" as="geometry">
            <mxPoint x="-5" y="-1" as="offset" />
          </mxGeometry>
        </mxCell>
        <mxCell id="AexJaZ2pixQEeQAk4NjD-6" value="Categoria" style="swimlane;fontStyle=2;align=center;verticalAlign=top;childLayout=stackLayout;horizontal=1;startSize=26;horizontalStack=0;resizeParent=1;resizeLast=0;collapsible=1;marginBottom=0;rounded=0;shadow=0;strokeWidth=1;" parent="WIyWlLk6GJQsqaUBKTNV-1" vertex="1">
          <mxGeometry x="40" y="499.5" width="160" height="94" as="geometry">
            <mxRectangle x="230" y="140" width="160" height="26" as="alternateBounds" />
          </mxGeometry>
        </mxCell>
        <mxCell id="AexJaZ2pixQEeQAk4NjD-7" value="- nombreCategoria: String&#xa;- descripcion: String&#xa;" style="text;align=left;verticalAlign=top;spacingLeft=4;spacingRight=4;overflow=hidden;rotatable=0;points=[[0,0.5],[1,0.5]];portConstraint=eastwest;" parent="AexJaZ2pixQEeQAk4NjD-6" vertex="1">
          <mxGeometry y="26" width="160" height="34" as="geometry" />
        </mxCell>
        <mxCell id="AexJaZ2pixQEeQAk4NjD-10" value="" style="line;html=1;strokeWidth=1;align=left;verticalAlign=middle;spacingTop=-1;spacingLeft=3;spacingRight=3;rotatable=0;labelPosition=right;points=[];portConstraint=eastwest;" parent="AexJaZ2pixQEeQAk4NjD-6" vertex="1">
          <mxGeometry y="60" width="160" height="8" as="geometry" />
        </mxCell>
        <mxCell id="AexJaZ2pixQEeQAk4NjD-11" value="+ /getters/setters" style="text;align=left;verticalAlign=top;spacingLeft=4;spacingRight=4;overflow=hidden;rotatable=0;points=[[0,0.5],[1,0.5]];portConstraint=eastwest;" parent="AexJaZ2pixQEeQAk4NjD-6" vertex="1">
          <mxGeometry y="68" width="160" height="26" as="geometry" />
        </mxCell>
        <mxCell id="AexJaZ2pixQEeQAk4NjD-85" style="edgeStyle=orthogonalEdgeStyle;rounded=0;orthogonalLoop=1;jettySize=auto;html=1;endArrow=block;endFill=0;endSize=9;" parent="WIyWlLk6GJQsqaUBKTNV-1" source="AexJaZ2pixQEeQAk4NjD-18" edge="1">
          <mxGeometry relative="1" as="geometry">
            <mxPoint x="200" y="890" as="targetPoint" />
            <Array as="points">
              <mxPoint x="260" y="1019" />
              <mxPoint x="260" y="890" />
            </Array>
          </mxGeometry>
        </mxCell>
        <mxCell id="AexJaZ2pixQEeQAk4NjD-88" style="edgeStyle=orthogonalEdgeStyle;rounded=0;orthogonalLoop=1;jettySize=auto;html=1;endArrow=none;endFill=0;" parent="WIyWlLk6GJQsqaUBKTNV-1" source="AexJaZ2pixQEeQAk4NjD-18" target="AexJaZ2pixQEeQAk4NjD-42" edge="1">
          <mxGeometry relative="1" as="geometry">
            <Array as="points">
              <mxPoint x="560" y="1019" />
              <mxPoint x="560" y="890" />
            </Array>
          </mxGeometry>
        </mxCell>
        <mxCell id="AexJaZ2pixQEeQAk4NjD-90" value="&lt;font style=&quot;font-size: 12px;&quot;&gt;Participa en&lt;/font&gt;" style="edgeLabel;html=1;align=center;verticalAlign=middle;resizable=0;points=[];" parent="AexJaZ2pixQEeQAk4NjD-88" vertex="1" connectable="0">
          <mxGeometry x="-0.3498" y="1" relative="1" as="geometry">
            <mxPoint y="-7" as="offset" />
          </mxGeometry>
        </mxCell>
        <mxCell id="AexJaZ2pixQEeQAk4NjD-98" value="1" style="edgeLabel;html=1;align=center;verticalAlign=middle;resizable=0;points=[];" parent="AexJaZ2pixQEeQAk4NjD-88" vertex="1" connectable="0">
          <mxGeometry x="-0.9131" y="1" relative="1" as="geometry">
            <mxPoint as="offset" />
          </mxGeometry>
        </mxCell>
        <mxCell id="AexJaZ2pixQEeQAk4NjD-99" value="0 ...*" style="edgeLabel;html=1;align=center;verticalAlign=middle;resizable=0;points=[];" parent="AexJaZ2pixQEeQAk4NjD-88" vertex="1" connectable="0">
          <mxGeometry x="0.8981" y="-1" relative="1" as="geometry">
            <mxPoint x="-5" y="-2" as="offset" />
          </mxGeometry>
        </mxCell>
        <mxCell id="AexJaZ2pixQEeQAk4NjD-18" value="UsuarioEstandar" style="swimlane;fontStyle=2;align=center;verticalAlign=top;childLayout=stackLayout;horizontal=1;startSize=26;horizontalStack=0;resizeParent=1;resizeLast=0;collapsible=1;marginBottom=0;rounded=0;shadow=0;strokeWidth=1;" parent="WIyWlLk6GJQsqaUBKTNV-1" vertex="1">
          <mxGeometry x="347" y="970" width="160" height="100" as="geometry">
            <mxRectangle x="230" y="140" width="160" height="26" as="alternateBounds" />
          </mxGeometry>
        </mxCell>
        <mxCell id="AexJaZ2pixQEeQAk4NjD-19" value=" " style="text;align=left;verticalAlign=top;spacingLeft=4;spacingRight=4;overflow=hidden;rotatable=0;points=[[0,0.5],[1,0.5]];portConstraint=eastwest;" parent="AexJaZ2pixQEeQAk4NjD-18" vertex="1">
          <mxGeometry y="26" width="160" height="26" as="geometry" />
        </mxCell>
        <mxCell id="AexJaZ2pixQEeQAk4NjD-22" value="" style="line;html=1;strokeWidth=1;align=left;verticalAlign=middle;spacingTop=-1;spacingLeft=3;spacingRight=3;rotatable=0;labelPosition=right;points=[];portConstraint=eastwest;" parent="AexJaZ2pixQEeQAk4NjD-18" vertex="1">
          <mxGeometry y="52" width="160" height="8" as="geometry" />
        </mxCell>
        <mxCell id="AexJaZ2pixQEeQAk4NjD-23" value="+ /getters/setters&#xa;+ modificarLista()&#xa;" style="text;align=left;verticalAlign=top;spacingLeft=4;spacingRight=4;overflow=hidden;rotatable=0;points=[[0,0.5],[1,0.5]];portConstraint=eastwest;" parent="AexJaZ2pixQEeQAk4NjD-18" vertex="1">
          <mxGeometry y="60" width="160" height="30" as="geometry" />
        </mxCell>
        <mxCell id="AexJaZ2pixQEeQAk4NjD-84" style="edgeStyle=orthogonalEdgeStyle;rounded=0;orthogonalLoop=1;jettySize=auto;html=1;endArrow=block;endFill=0;endSize=9;" parent="WIyWlLk6GJQsqaUBKTNV-1" source="AexJaZ2pixQEeQAk4NjD-24" edge="1">
          <mxGeometry relative="1" as="geometry">
            <mxPoint x="200" y="870" as="targetPoint" />
            <Array as="points">
              <mxPoint x="300" y="870" />
              <mxPoint x="300" y="870" />
            </Array>
          </mxGeometry>
        </mxCell>
        <mxCell id="AexJaZ2pixQEeQAk4NjD-93" value="&lt;font style=&quot;font-size: 12px;&quot;&gt;Administra&lt;/font&gt;" style="edgeLabel;html=1;align=center;verticalAlign=middle;resizable=0;points=[];" parent="AexJaZ2pixQEeQAk4NjD-84" vertex="1" connectable="0">
          <mxGeometry x="-0.1176" y="3" relative="1" as="geometry">
            <mxPoint y="-4" as="offset" />
          </mxGeometry>
        </mxCell>
        <mxCell id="AexJaZ2pixQEeQAk4NjD-24" value="UsuarioAdministrador" style="swimlane;fontStyle=2;align=center;verticalAlign=top;childLayout=stackLayout;horizontal=1;startSize=26;horizontalStack=0;resizeParent=1;resizeLast=0;collapsible=1;marginBottom=0;rounded=0;shadow=0;strokeWidth=1;" parent="WIyWlLk6GJQsqaUBKTNV-1" vertex="1">
          <mxGeometry x="347" y="804" width="160" height="130" as="geometry">
            <mxRectangle x="230" y="140" width="160" height="26" as="alternateBounds" />
          </mxGeometry>
        </mxCell>
        <mxCell id="AexJaZ2pixQEeQAk4NjD-25" value=" " style="text;align=left;verticalAlign=top;spacingLeft=4;spacingRight=4;overflow=hidden;rotatable=0;points=[[0,0.5],[1,0.5]];portConstraint=eastwest;" parent="AexJaZ2pixQEeQAk4NjD-24" vertex="1">
          <mxGeometry y="26" width="160" height="26" as="geometry" />
        </mxCell>
        <mxCell id="AexJaZ2pixQEeQAk4NjD-28" value="" style="line;html=1;strokeWidth=1;align=left;verticalAlign=middle;spacingTop=-1;spacingLeft=3;spacingRight=3;rotatable=0;labelPosition=right;points=[];portConstraint=eastwest;" parent="AexJaZ2pixQEeQAk4NjD-24" vertex="1">
          <mxGeometry y="52" width="160" height="8" as="geometry" />
        </mxCell>
        <mxCell id="AexJaZ2pixQEeQAk4NjD-29" value="+ /getters/setters&#xa;+ crearProyecto()&#xa;+ modificarProyecto()&#xa;+ darAcceso()" style="text;align=left;verticalAlign=top;spacingLeft=4;spacingRight=4;overflow=hidden;rotatable=0;points=[[0,0.5],[1,0.5]];portConstraint=eastwest;" parent="AexJaZ2pixQEeQAk4NjD-24" vertex="1">
          <mxGeometry y="60" width="160" height="60" as="geometry" />
        </mxCell>
        <mxCell id="AexJaZ2pixQEeQAk4NjD-83" style="edgeStyle=orthogonalEdgeStyle;rounded=0;orthogonalLoop=1;jettySize=auto;html=1;endArrow=block;endFill=0;endSize=9;" parent="WIyWlLk6GJQsqaUBKTNV-1" source="AexJaZ2pixQEeQAk4NjD-30" edge="1">
          <mxGeometry relative="1" as="geometry">
            <mxPoint x="200" y="850" as="targetPoint" />
            <Array as="points">
              <mxPoint x="260" y="719" />
              <mxPoint x="260" y="850" />
            </Array>
          </mxGeometry>
        </mxCell>
        <mxCell id="AexJaZ2pixQEeQAk4NjD-86" style="edgeStyle=orthogonalEdgeStyle;rounded=0;orthogonalLoop=1;jettySize=auto;html=1;endArrow=none;endFill=0;" parent="WIyWlLk6GJQsqaUBKTNV-1" source="AexJaZ2pixQEeQAk4NjD-30" target="AexJaZ2pixQEeQAk4NjD-42" edge="1">
          <mxGeometry relative="1" as="geometry">
            <Array as="points">
              <mxPoint x="560" y="719" />
              <mxPoint x="560" y="850" />
            </Array>
          </mxGeometry>
        </mxCell>
        <mxCell id="AexJaZ2pixQEeQAk4NjD-91" value="&lt;font style=&quot;font-size: 12px;&quot;&gt;Visualiza&lt;/font&gt;" style="edgeLabel;html=1;align=center;verticalAlign=middle;resizable=0;points=[];" parent="AexJaZ2pixQEeQAk4NjD-86" vertex="1" connectable="0">
          <mxGeometry x="-0.2509" y="3" relative="1" as="geometry">
            <mxPoint x="-3" y="-5" as="offset" />
          </mxGeometry>
        </mxCell>
        <mxCell id="AexJaZ2pixQEeQAk4NjD-30" value="UsuarioEspectador" style="swimlane;fontStyle=2;align=center;verticalAlign=top;childLayout=stackLayout;horizontal=1;startSize=26;horizontalStack=0;resizeParent=1;resizeLast=0;collapsible=1;marginBottom=0;rounded=0;shadow=0;strokeWidth=1;" parent="WIyWlLk6GJQsqaUBKTNV-1" vertex="1">
          <mxGeometry x="347" y="670" width="160" height="100" as="geometry">
            <mxRectangle x="230" y="140" width="160" height="26" as="alternateBounds" />
          </mxGeometry>
        </mxCell>
        <mxCell id="AexJaZ2pixQEeQAk4NjD-31" value=" " style="text;align=left;verticalAlign=top;spacingLeft=4;spacingRight=4;overflow=hidden;rotatable=0;points=[[0,0.5],[1,0.5]];portConstraint=eastwest;" parent="AexJaZ2pixQEeQAk4NjD-30" vertex="1">
          <mxGeometry y="26" width="160" height="26" as="geometry" />
        </mxCell>
        <mxCell id="AexJaZ2pixQEeQAk4NjD-34" value="" style="line;html=1;strokeWidth=1;align=left;verticalAlign=middle;spacingTop=-1;spacingLeft=3;spacingRight=3;rotatable=0;labelPosition=right;points=[];portConstraint=eastwest;" parent="AexJaZ2pixQEeQAk4NjD-30" vertex="1">
          <mxGeometry y="52" width="160" height="8" as="geometry" />
        </mxCell>
        <mxCell id="AexJaZ2pixQEeQAk4NjD-35" value="+ /getters/setters&#xa;+ mostrarProyecto()&#xa;" style="text;align=left;verticalAlign=top;spacingLeft=4;spacingRight=4;overflow=hidden;rotatable=0;points=[[0,0.5],[1,0.5]];portConstraint=eastwest;" parent="AexJaZ2pixQEeQAk4NjD-30" vertex="1">
          <mxGeometry y="60" width="160" height="40" as="geometry" />
        </mxCell>
        <mxCell id="AexJaZ2pixQEeQAk4NjD-42" value="Proyecto" style="swimlane;fontStyle=2;align=center;verticalAlign=top;childLayout=stackLayout;horizontal=1;startSize=26;horizontalStack=0;resizeParent=1;resizeLast=0;collapsible=1;marginBottom=0;rounded=0;shadow=0;strokeWidth=1;" parent="WIyWlLk6GJQsqaUBKTNV-1" vertex="1">
          <mxGeometry x="640" y="787" width="160" height="164" as="geometry">
            <mxRectangle x="230" y="140" width="160" height="26" as="alternateBounds" />
          </mxGeometry>
        </mxCell>
        <mxCell id="AexJaZ2pixQEeQAk4NjD-43" value="- idProyecto: Long&#xa;- nombre: String&#xa;- descripcion: String&#xa;- participante: Usuario()&#xa;- fechaInicio: String&#xa;- fechaFin: String&#xa;- estado: boolean&#xa;" style="text;align=left;verticalAlign=top;spacingLeft=4;spacingRight=4;overflow=hidden;rotatable=0;points=[[0,0.5],[1,0.5]];portConstraint=eastwest;" parent="AexJaZ2pixQEeQAk4NjD-42" vertex="1">
          <mxGeometry y="26" width="160" height="104" as="geometry" />
        </mxCell>
        <mxCell id="AexJaZ2pixQEeQAk4NjD-46" value="" style="line;html=1;strokeWidth=1;align=left;verticalAlign=middle;spacingTop=-1;spacingLeft=3;spacingRight=3;rotatable=0;labelPosition=right;points=[];portConstraint=eastwest;" parent="AexJaZ2pixQEeQAk4NjD-42" vertex="1">
          <mxGeometry y="130" width="160" height="8" as="geometry" />
        </mxCell>
        <mxCell id="AexJaZ2pixQEeQAk4NjD-47" value="+ /getters/setters" style="text;align=left;verticalAlign=top;spacingLeft=4;spacingRight=4;overflow=hidden;rotatable=0;points=[[0,0.5],[1,0.5]];portConstraint=eastwest;" parent="AexJaZ2pixQEeQAk4NjD-42" vertex="1">
          <mxGeometry y="138" width="160" height="26" as="geometry" />
        </mxCell>
        <mxCell id="AexJaZ2pixQEeQAk4NjD-77" style="edgeStyle=orthogonalEdgeStyle;rounded=0;orthogonalLoop=1;jettySize=auto;html=1;endArrow=diamondThin;endFill=1;endSize=20;" parent="WIyWlLk6GJQsqaUBKTNV-1" source="AexJaZ2pixQEeQAk4NjD-48" target="AexJaZ2pixQEeQAk4NjD-42" edge="1">
          <mxGeometry relative="1" as="geometry" />
        </mxCell>
        <mxCell id="AexJaZ2pixQEeQAk4NjD-112" value="1" style="edgeLabel;html=1;align=center;verticalAlign=middle;resizable=0;points=[];" parent="AexJaZ2pixQEeQAk4NjD-77" vertex="1" connectable="0">
          <mxGeometry x="-0.9246" y="1" relative="1" as="geometry">
            <mxPoint x="4" y="5" as="offset" />
          </mxGeometry>
        </mxCell>
        <mxCell id="AexJaZ2pixQEeQAk4NjD-113" value="1 ... *" style="edgeLabel;html=1;align=center;verticalAlign=middle;resizable=0;points=[];" parent="AexJaZ2pixQEeQAk4NjD-77" vertex="1" connectable="0">
          <mxGeometry x="0.6292" y="-1" relative="1" as="geometry">
            <mxPoint x="15" as="offset" />
          </mxGeometry>
        </mxCell>
        <mxCell id="AexJaZ2pixQEeQAk4NjD-48" value="ListaRiesgos" style="swimlane;fontStyle=2;align=center;verticalAlign=top;childLayout=stackLayout;horizontal=1;startSize=26;horizontalStack=0;resizeParent=1;resizeLast=0;collapsible=1;marginBottom=0;rounded=0;shadow=0;strokeWidth=1;" parent="WIyWlLk6GJQsqaUBKTNV-1" vertex="1">
          <mxGeometry x="640" y="486.5" width="160" height="120" as="geometry">
            <mxRectangle x="230" y="140" width="160" height="26" as="alternateBounds" />
          </mxGeometry>
        </mxCell>
        <mxCell id="AexJaZ2pixQEeQAk4NjD-49" value="- idLista: Long&#xa;- riesgo: Riesgo()&#xa;" style="text;align=left;verticalAlign=top;spacingLeft=4;spacingRight=4;overflow=hidden;rotatable=0;points=[[0,0.5],[1,0.5]];portConstraint=eastwest;" parent="AexJaZ2pixQEeQAk4NjD-48" vertex="1">
          <mxGeometry y="26" width="160" height="44" as="geometry" />
        </mxCell>
        <mxCell id="AexJaZ2pixQEeQAk4NjD-52" value="" style="line;html=1;strokeWidth=1;align=left;verticalAlign=middle;spacingTop=-1;spacingLeft=3;spacingRight=3;rotatable=0;labelPosition=right;points=[];portConstraint=eastwest;" parent="AexJaZ2pixQEeQAk4NjD-48" vertex="1">
          <mxGeometry y="70" width="160" height="8" as="geometry" />
        </mxCell>
        <mxCell id="AexJaZ2pixQEeQAk4NjD-53" value="+ /getters/setters&#xa;+ agregarRiesgo()&#xa;" style="text;align=left;verticalAlign=top;spacingLeft=4;spacingRight=4;overflow=hidden;rotatable=0;points=[[0,0.5],[1,0.5]];portConstraint=eastwest;" parent="AexJaZ2pixQEeQAk4NjD-48" vertex="1">
          <mxGeometry y="78" width="160" height="42" as="geometry" />
        </mxCell>
        <mxCell id="AexJaZ2pixQEeQAk4NjD-79" style="edgeStyle=orthogonalEdgeStyle;rounded=0;orthogonalLoop=1;jettySize=auto;html=1;endArrow=diamondThin;endFill=1;endSize=20;" parent="WIyWlLk6GJQsqaUBKTNV-1" source="AexJaZ2pixQEeQAk4NjD-54" target="AexJaZ2pixQEeQAk4NjD-42" edge="1">
          <mxGeometry relative="1" as="geometry">
            <Array as="points">
              <mxPoint x="427" y="220" />
              <mxPoint x="880" y="220" />
              <mxPoint x="880" y="869" />
            </Array>
          </mxGeometry>
        </mxCell>
        <mxCell id="AexJaZ2pixQEeQAk4NjD-116" value="1" style="edgeLabel;html=1;align=center;verticalAlign=middle;resizable=0;points=[];" parent="AexJaZ2pixQEeQAk4NjD-79" vertex="1" connectable="0">
          <mxGeometry x="0.948" relative="1" as="geometry">
            <mxPoint y="-9" as="offset" />
          </mxGeometry>
        </mxCell>
        <mxCell id="AexJaZ2pixQEeQAk4NjD-117" value="0 ... *" style="edgeLabel;html=1;align=center;verticalAlign=middle;resizable=0;points=[];" parent="AexJaZ2pixQEeQAk4NjD-79" vertex="1" connectable="0">
          <mxGeometry x="-0.9762" relative="1" as="geometry">
            <mxPoint x="16" as="offset" />
          </mxGeometry>
        </mxCell>
        <mxCell id="AexJaZ2pixQEeQAk4NjD-54" value="Incidencia&#xa;" style="swimlane;fontStyle=2;align=center;verticalAlign=top;childLayout=stackLayout;horizontal=1;startSize=26;horizontalStack=0;resizeParent=1;resizeLast=0;collapsible=1;marginBottom=0;rounded=0;shadow=0;strokeWidth=1;" parent="WIyWlLk6GJQsqaUBKTNV-1" vertex="1">
          <mxGeometry x="310.5" y="264" width="233" height="130" as="geometry">
            <mxRectangle x="230" y="140" width="160" height="26" as="alternateBounds" />
          </mxGeometry>
        </mxCell>
        <mxCell id="AexJaZ2pixQEeQAk4NjD-55" value="- idInforme: Long&#xa;- fechaCreación: String" style="text;align=left;verticalAlign=top;spacingLeft=4;spacingRight=4;overflow=hidden;rotatable=0;points=[[0,0.5],[1,0.5]];portConstraint=eastwest;" parent="AexJaZ2pixQEeQAk4NjD-54" vertex="1">
          <mxGeometry y="26" width="233" height="54" as="geometry" />
        </mxCell>
        <mxCell id="AexJaZ2pixQEeQAk4NjD-58" value="" style="line;html=1;strokeWidth=1;align=left;verticalAlign=middle;spacingTop=-1;spacingLeft=3;spacingRight=3;rotatable=0;labelPosition=right;points=[];portConstraint=eastwest;" parent="AexJaZ2pixQEeQAk4NjD-54" vertex="1">
          <mxGeometry y="80" width="233" height="8" as="geometry" />
        </mxCell>
        <mxCell id="AexJaZ2pixQEeQAk4NjD-59" value="+ /getters/setters&#xa;+ generarInforme(fechaInicio, fechaFin)&#xa;" style="text;align=left;verticalAlign=top;spacingLeft=4;spacingRight=4;overflow=hidden;rotatable=0;points=[[0,0.5],[1,0.5]];portConstraint=eastwest;" parent="AexJaZ2pixQEeQAk4NjD-54" vertex="1">
          <mxGeometry y="88" width="233" height="42" as="geometry" />
        </mxCell>
        <mxCell id="AexJaZ2pixQEeQAk4NjD-87" style="edgeStyle=orthogonalEdgeStyle;rounded=0;orthogonalLoop=1;jettySize=auto;html=1;endArrow=none;endFill=0;" parent="WIyWlLk6GJQsqaUBKTNV-1" source="AexJaZ2pixQEeQAk4NjD-24" target="AexJaZ2pixQEeQAk4NjD-42" edge="1">
          <mxGeometry relative="1" as="geometry">
            <Array as="points">
              <mxPoint x="540" y="870" />
              <mxPoint x="540" y="870" />
            </Array>
          </mxGeometry>
        </mxCell>
        <mxCell id="AexJaZ2pixQEeQAk4NjD-92" value="&lt;font style=&quot;font-size: 12px;&quot;&gt;Crea&lt;/font&gt;" style="edgeLabel;html=1;align=center;verticalAlign=middle;resizable=0;points=[];" parent="AexJaZ2pixQEeQAk4NjD-87" vertex="1" connectable="0">
          <mxGeometry x="-0.3835" relative="1" as="geometry">
            <mxPoint y="-1" as="offset" />
          </mxGeometry>
        </mxCell>
        <mxCell id="AexJaZ2pixQEeQAk4NjD-94" value="Usuario" style="swimlane;fontStyle=2;align=center;verticalAlign=top;childLayout=stackLayout;horizontal=1;startSize=26;horizontalStack=0;resizeParent=1;resizeLast=0;collapsible=1;marginBottom=0;rounded=0;shadow=0;strokeWidth=1;" parent="WIyWlLk6GJQsqaUBKTNV-1" vertex="1">
          <mxGeometry x="40" y="812" width="160" height="114" as="geometry">
            <mxRectangle x="230" y="140" width="160" height="26" as="alternateBounds" />
          </mxGeometry>
        </mxCell>
        <mxCell id="AexJaZ2pixQEeQAk4NjD-95" value="- id: Long&#xa;- nombre: String&#xa;- correo: String" style="text;align=left;verticalAlign=top;spacingLeft=4;spacingRight=4;overflow=hidden;rotatable=0;points=[[0,0.5],[1,0.5]];portConstraint=eastwest;" parent="AexJaZ2pixQEeQAk4NjD-94" vertex="1">
          <mxGeometry y="26" width="160" height="54" as="geometry" />
        </mxCell>
        <mxCell id="AexJaZ2pixQEeQAk4NjD-96" value="" style="line;html=1;strokeWidth=1;align=left;verticalAlign=middle;spacingTop=-1;spacingLeft=3;spacingRight=3;rotatable=0;labelPosition=right;points=[];portConstraint=eastwest;" parent="AexJaZ2pixQEeQAk4NjD-94" vertex="1">
          <mxGeometry y="80" width="160" height="8" as="geometry" />
        </mxCell>
        <mxCell id="AexJaZ2pixQEeQAk4NjD-97" value="+ /getters/setters" style="text;align=left;verticalAlign=top;spacingLeft=4;spacingRight=4;overflow=hidden;rotatable=0;points=[[0,0.5],[1,0.5]];portConstraint=eastwest;" parent="AexJaZ2pixQEeQAk4NjD-94" vertex="1">
          <mxGeometry y="88" width="160" height="26" as="geometry" />
        </mxCell>
        <mxCell id="AexJaZ2pixQEeQAk4NjD-100" value="1" style="edgeLabel;html=1;align=center;verticalAlign=middle;resizable=0;points=[];" parent="WIyWlLk6GJQsqaUBKTNV-1" vertex="1" connectable="0">
          <mxGeometry x="528.7241379310344" y="1043.0044827586207" as="geometry">
            <mxPoint x="-10" y="-174" as="offset" />
          </mxGeometry>
        </mxCell>
        <mxCell id="AexJaZ2pixQEeQAk4NjD-101" value="0 ...*" style="edgeLabel;html=1;align=center;verticalAlign=middle;resizable=0;points=[];" parent="WIyWlLk6GJQsqaUBKTNV-1" vertex="1" connectable="0">
          <mxGeometry x="629.9310344827588" y="913" as="geometry">
            <mxPoint x="-8" y="-44" as="offset" />
          </mxGeometry>
        </mxCell>
        <mxCell id="AexJaZ2pixQEeQAk4NjD-102" value="0 ...*" style="edgeLabel;html=1;align=center;verticalAlign=middle;resizable=0;points=[];" parent="WIyWlLk6GJQsqaUBKTNV-1" vertex="1" connectable="0">
          <mxGeometry x="621.9310344827588" y="848" as="geometry" />
        </mxCell>
        <mxCell id="AexJaZ2pixQEeQAk4NjD-103" value="1" style="edgeLabel;html=1;align=center;verticalAlign=middle;resizable=0;points=[];" parent="WIyWlLk6GJQsqaUBKTNV-1" vertex="1" connectable="0">
          <mxGeometry x="528.7241379310344" y="892.0044827586207" as="geometry">
            <mxPoint x="-10" y="-174" as="offset" />
          </mxGeometry>
        </mxCell>
      </root>
    </mxGraphModel>
  </diagram>
</mxfile>
